<svg width="55" height="46" viewBox="0 0 55 46" fill="none" xmlns="http://www.w3.org/2000/svg">
<path d="M26.57 17.5238V10.9524H18.599V6.57143H26.57V0H31.8841V6.57143H39.8551V10.9524H31.8841V17.5238H26.57ZM15.942 46C14.4807 46 13.2297 45.571 12.189 44.7131C11.1483 43.8552 10.628 42.8238 10.628 41.619C10.628 40.4143 11.1483 39.3829 12.189 38.525C13.2297 37.6671 14.4807 37.2381 15.942 37.2381C17.4034 37.2381 18.6544 37.6671 19.695 38.525C20.7357 39.3829 21.256 40.4143 21.256 41.619C21.256 42.8238 20.7357 43.8552 19.695 44.7131C18.6544 45.571 17.4034 46 15.942 46ZM42.5121 46C41.0507 46 39.7997 45.571 38.7591 44.7131C37.7184 43.8552 37.1981 42.8238 37.1981 41.619C37.1981 40.4143 37.7184 39.3829 38.7591 38.525C39.7997 37.6671 41.0507 37.2381 42.5121 37.2381C43.9734 37.2381 45.2244 37.6671 46.2651 38.525C47.3058 39.3829 47.8261 40.4143 47.8261 41.619C47.8261 42.8238 47.3058 43.8552 46.2651 44.7131C45.2244 45.571 43.9734 46 42.5121 46ZM0 6.57143V2.19048H8.70169L19.994 21.9048H38.593L48.9553 6.57143H55L43.3092 23.9857C42.8221 24.7159 42.1689 25.2817 41.3496 25.6833C40.5304 26.0849 39.6337 26.2857 38.6594 26.2857H18.8647L15.942 30.6667H47.8261V35.0476H15.942C13.9493 35.0476 12.4326 34.3357 11.3919 32.9119C10.3512 31.4881 10.318 30.046 11.2923 28.5857L14.8792 23.219L5.31401 6.57143H0Z" fill="#A2C579"/>
</svg>
