<svg width="64" height="62" viewBox="0 0 64 62" fill="none" xmlns="http://www.w3.org/2000/svg">
<mask id="mask0_40_473" style="mask-type:alpha" maskUnits="userSpaceOnUse" x="0" y="0" width="64" height="62">
<rect width="64" height="62" fill="#D9D9D9"/>
</mask>
<g mask="url(#mask0_40_473)">
<path d="M31.9997 54.25L28.133 50.8917C23.6441 46.9736 19.933 43.5937 16.9997 40.7521C14.0663 37.9104 11.733 35.3594 9.99967 33.099C8.26634 30.8385 7.05523 28.7611 6.36634 26.8667C5.67745 24.9722 5.33301 23.0347 5.33301 21.0542C5.33301 17.0069 6.73301 13.6271 9.53301 10.9146C12.333 8.20208 15.8219 6.84583 19.9997 6.84583C22.3108 6.84583 24.5108 7.31944 26.5997 8.26666C28.6886 9.21388 30.4886 10.5486 31.9997 12.2708C33.5108 10.5486 35.3108 9.21388 37.3997 8.26666C39.4886 7.31944 41.6886 6.84583 43.9997 6.84583C48.1774 6.84583 51.6663 8.20208 54.4663 10.9146C57.2663 13.6271 58.6663 17.0069 58.6663 21.0542C58.6663 23.0347 58.3219 24.9722 57.633 26.8667C56.9441 28.7611 55.733 30.8385 53.9997 33.099C52.2663 35.3594 49.933 37.9104 46.9997 40.7521C44.0663 43.5937 40.3552 46.9736 35.8663 50.8917L31.9997 54.25ZM31.9997 47.275C36.2663 43.5722 39.7775 40.3969 42.533 37.749C45.2886 35.101 47.4663 32.7976 49.0663 30.8385C50.6663 28.8795 51.7774 27.1358 52.3997 25.6073C53.0219 24.0788 53.333 22.5611 53.333 21.0542C53.333 18.4708 52.4441 16.318 50.6663 14.5958C48.8886 12.8736 46.6663 12.0125 43.9997 12.0125C41.9108 12.0125 39.9775 12.583 38.1997 13.724C36.4219 14.8649 35.1997 16.318 34.533 18.0833H29.4663C28.7997 16.318 27.5775 14.8649 25.7997 13.724C24.0219 12.583 22.0886 12.0125 19.9997 12.0125C17.333 12.0125 15.1108 12.8736 13.333 14.5958C11.5552 16.318 10.6663 18.4708 10.6663 21.0542C10.6663 22.5611 10.9775 24.0788 11.5997 25.6073C12.2219 27.1358 13.333 28.8795 14.933 30.8385C16.533 32.7976 18.7108 35.101 21.4663 37.749C24.2219 40.3969 27.733 43.5722 31.9997 47.275Z" fill="#A2C579"/>
</g>
</svg>
